<?xml version="1.0" encoding="UTF-8" standalone="no"?>
<svg
   xmlns:dc="http://purl.org/dc/elements/1.1/"
   xmlns:cc="http://creativecommons.org/ns#"
   xmlns:rdf="http://www.w3.org/1999/02/22-rdf-syntax-ns#"
   xmlns:svg="http://www.w3.org/2000/svg"
   xmlns="http://www.w3.org/2000/svg"
   xmlns:sodipodi="http://sodipodi.sourceforge.net/DTD/sodipodi-0.dtd"
   xmlns:inkscape="http://www.inkscape.org/namespaces/inkscape"
   version="1.1"
   id="Capa_1"
   x="0px"
   y="0px"
   viewBox="0 0 488.85 488.85"
   style="enable-background:new 0 0 488.85 488.85;"
   xml:space="preserve"
   sodipodi:docname="ellipsis.svg"
   inkscape:version="1.0.2 (e86c8708, 2021-01-15)"><metadata
   id="metadata872"><rdf:RDF><cc:Work
       rdf:about=""><dc:format>image/svg+xml</dc:format><dc:type
         rdf:resource="http://purl.org/dc/dcmitype/StillImage" /></cc:Work></rdf:RDF></metadata><defs
   id="defs870">
	
</defs><sodipodi:namedview
   pagecolor="#ffffff"
   bordercolor="#666666"
   borderopacity="1"
   objecttolerance="10"
   gridtolerance="10"
   guidetolerance="10"
   inkscape:pageopacity="0"
   inkscape:pageshadow="2"
   inkscape:window-width="1620"
   inkscape:window-height="1016"
   id="namedview868"
   showgrid="false"
   inkscape:zoom="1.4564795"
   inkscape:cx="244.425"
   inkscape:cy="244.425"
   inkscape:window-x="0"
   inkscape:window-y="25"
   inkscape:window-maximized="0"
   inkscape:current-layer="Capa_1"
   inkscape:document-rotation="0" />
<path
   d="m 246.60185,299.675 c -33.4,2.1 -61,-25.4 -58.8,-58.8 1.7,-27.6 24.1,-49.9 51.7,-51.7 33.4,-2.1 61,25.4 58.8,58.8 -1.8,27.7 -24.2,50 -51.7,51.7 z"
   id="path833"
   sodipodi:nodetypes="ccccc" />
<g
   id="g837">
</g>
<g
   id="g839">
</g>
<g
   id="g841">
</g>
<g
   id="g843">
</g>
<g
   id="g845">
</g>
<g
   id="g847">
</g>
<g
   id="g849">
</g>
<g
   id="g851">
</g>
<g
   id="g853">
</g>
<g
   id="g855">
</g>
<g
   id="g857">
</g>
<g
   id="g859">
</g>
<g
   id="g861">
</g>
<g
   id="g863">
</g>
<g
   id="g865">
</g>
<path
   d="m 437.02696,296.92865 c -33.4,2.1 -61.00001,-25.4 -58.80001,-58.8 1.7,-27.6 24.10001,-49.9 51.70001,-51.7 33.4,-2.1 61,25.4 58.8,58.8 -1.8,27.7 -24.2,50 -51.7,51.7 z"
   id="path833-9"
   sodipodi:nodetypes="ccccc" /><path
   d="m 58.923042,299.675 c -33.399995,2.1 -60.9999951,-25.4 -58.79999508,-58.8 1.69999998,-27.6 24.10000008,-49.9 51.70000008,-51.7 33.399997,-2.1 60.999993,25.4 58.799993,58.8 -1.8,27.7 -24.199996,50 -51.699998,51.7 z"
   id="path833-9-9"
   sodipodi:nodetypes="ccccc" /></svg>
